<?xml version="1.0" encoding="UTF-8"?>
<!DOCTYPE svg PUBLIC "-//W3C//DTD SVG 1.1//EN" "http://www.w3.org/Graphics/SVG/1.1/DTD/svg11.dtd">
<!-- Creator: CorelDRAW 2019 (64 Bit) -->
<svg xmlns="http://www.w3.org/2000/svg" xml:space="preserve" width="32.8718mm" height="26.7182mm" version="1.1" style="shape-rendering:geometricPrecision; text-rendering:geometricPrecision; image-rendering:optimizeQuality; fill-rule:evenodd; clip-rule:evenodd"
viewBox="0 0 1429.5 1161.9"
 xmlns:xlink="http://www.w3.org/1999/xlink"
 xmlns:xodm="http://www.corel.com/coreldraw/odm/2003">
 <defs>
  <style type="text/css">
   <![CDATA[
    .fil0 {fill:black}
   ]]>
  </style>
 </defs>
 <g id="Camada_x0020_1">
  <metadata id="CorelCorpID_0Corel-Layer"/>
  <path class="fil0" d="M1379.55 153.97l49.95 -0.1c-225.59,199.68 -467.27,370.02 -687.11,593.01 -13.06,19.41 50.45,45.24 86.97,45.95 87.97,-34.6 165.29,-85.3 259.59,-68.41l0 437.13 -813.98 0.35 57.53 -95.5 660.45 -8.05 -1.15 -243.93c-69.04,23.78 -138.07,47.56 -207.11,71.34 -26.66,4.89 -53.32,0.29 -78.24,-6.9 -25.51,-12.47 -48.13,-28.67 -64.43,-49.48 -10.93,-15.43 -16.68,-32.6 -17.26,-50.62 3.74,-26.56 12.94,-48.52 27.61,-66.74l727.18 -558.04z"/>
  <polygon class="fil0" points="504.39,110.52 342.86,102.02 355.61,571.74 206.83,746.02 179.2,737.52 168.57,760.9 134.57,769.4 102.69,839.54 55.93,797.03 98.44,671.63 225.96,565.36 259.97,567.48 259.97,495.22 268.47,435.71 266.35,361.32 249.34,306.06 274.85,280.55 255.72,246.55 272.72,212.54 259.97,184.91 255.72,129.65 272.72,102.02 264.22,38.26 464.01,44.64 491.64,23.38 682.93,38.26 716.93,29.75 778.57,31.88 827.45,44.64 876.34,25.51 995.36,46.76 1105.89,0 1103.76,65.89 1061.25,87.14 1018.75,123.27 937.98,123.27 906.1,102.02 787.07,106.27 740.32,136.03 687.18,112.64 555.4,112.64 521.39,127.53 "/>
  <path class="fil0" d="M1114.36 84.76l34.04 21.51 -106.27 76.52 6.38 57.39 -89.27 74.39 -6.38 40.39 -44.63 0 -17.66 5.37 4.03 42.57 -56.38 46.03 -49.48 0 -89.17 78.82 -67.31 43.16 -9.21 17.26 -81.12 64.43 -18.98 -2.87 -15.53 9.78 -4.61 23.59 -124.84 82.27 -37.39 14.96 -150.73 158.78 26.47 8.63 97.8 -39.7 54.65 -28.19 34.52 32.79c-57.34,45.64 -109.5,93.58 -172.02,136.92 -31.55,19.36 -64.82,35 -102.4,44.3 -33.75,10.07 -67.21,12.95 -101.25,10.36 -16.97,-9.4 -25.31,-19.94 -27.61,-33.37 2.78,-38.83 11.31,-75.65 34.8,-101.54 17.93,-36.53 37.88,-61.27 64.15,-87.16 20.9,-27.61 39.51,-54.08 66.16,-72.49l69.61 -41.42 4.6 -30.49 21.29 0 11.51 -15.53 0 -17.26 25.31 0.57 20.71 -19.56 2.88 -20.13 20.71 2.3 113.34 -88.02 5.75 -32.22 53.5 -1.15 48.33 -41.42 30.49 0.57 49.48 -48.33 47.75 -13.23 26.46 -20.71 10.93 -29.34 34.52 -21.29 17.83 2.3 28.19 -28.77 27.04 -3.45 30.49 -29.34 3.45 -23.01 63.28 -48.9 107 -83.42 8.63 -44.3 27.61 11.51 38.55 -40.85z"/>
 </g>
</svg>
